/* XPM */
const char * arrowstop_xpm[] = {
"12 12 3 1",
"  c None",
". c #FF0000",
"+ c #007700",
"            ",
"    ....    ",
"   .   +.   ",
"  .  ..++.  ",
" .   . +++. ",
" ++++++++++ ",
" ++++++++++ ",
" .   . +++. ",
"  .  ..++.  ",
"   .   +.   ",
"    ....    ",
"            "};
