/* XPM */
const char * stop_xpm[] = {
"12 12 2 1",
"  c None",
"+ c #FF0000",
"            ",
"    ++++    ",
"   +    +   ",
"  +  ++  +  ",
" +   + +  + ",
" +   ++   + ",
" +   + +  + ",
" +   + +  + ",
"  +  ++  +  ",
"   +    +   ",
"    ++++    ",
"            "};
